<!-- This is an SVG sprite that we added in its entirety and hidden visually. -->
<svg aria-hidden="true" style="position:absolute;width:0;height:0" xmlns="http://www.w3.org/2000/svg" overflow="hidden">
  <defs>
    <!-- Instagram Icon -->
    <symbol id="icon-instagram" viewBox="0 0 20 20">
        <path d="M19.9804 5.88005C19.9336 4.81738 19.7617 4.0868 19.5155 3.45374C19.2616 2.78176 18.8709 2.18014 18.359 1.68002C17.8589 1.1721 17.2533 0.777435 16.5891 0.527447C15.9524 0.281274 15.2256 0.109427 14.1629 0.0625732C13.0923 0.0117516 12.7524 0 10.0371 0C7.3217 0 6.98182 0.0117516 5.91517 0.0586052C4.8525 0.105459 4.12192 0.277459 3.48901 0.523479C2.81689 0.777435 2.21527 1.16814 1.71514 1.68002C1.20723 2.18014 0.812712 2.78573 0.562572 3.44992C0.3164 4.0868 0.144553 4.81341 0.0976989 5.87609C0.0468773 6.9467 0.0351257 7.28658 0.0351257 10.002C0.0351257 12.7173 0.0468773 13.0572 0.0937309 14.1239C0.140584 15.1865 0.312584 15.9171 0.558757 16.5502C0.812712 17.2221 1.20723 17.8238 1.71514 18.3239C2.21527 18.8318 2.82085 19.2265 3.48505 19.4765C4.12192 19.7226 4.84853 19.8945 5.91136 19.9413C6.97785 19.9883 7.31788 19.9999 10.0333 19.9999C12.7486 19.9999 13.0885 19.9883 14.1552 19.9413C15.2178 19.8945 15.9484 19.7226 16.5813 19.4765C17.9254 18.9568 18.9881 17.8941 19.5078 16.5502C19.7538 15.9133 19.9258 15.1865 19.9726 14.1239C20.0195 13.0572 20.0312 12.7173 20.0312 10.002C20.0312 7.28658 20.0273 6.9467 19.9804 5.88005ZM18.1794 14.0457C18.1363 15.0225 17.9723 15.5499 17.8355 15.9015C17.4995 16.7728 16.8079 17.4643 15.9367 17.8004C15.585 17.9372 15.0538 18.1012 14.0808 18.1441C13.0259 18.1911 12.7096 18.2027 10.041 18.2027C7.37252 18.2027 7.05218 18.1911 6.0011 18.1441C5.02435 18.1012 4.4969 17.9372 4.14527 17.8004C3.71168 17.6402 3.31701 17.3862 2.99667 17.0541C2.66457 16.7298 2.41062 16.3391 2.25037 15.9055C2.11362 15.5539 1.94956 15.0225 1.90667 14.0497C1.85967 12.9948 1.84807 12.6783 1.84807 10.0097C1.84807 7.34122 1.85967 7.02087 1.90667 5.96995C1.94956 4.99319 2.11362 4.46575 2.25037 4.11412C2.41062 3.68038 2.66457 3.28586 3.00064 2.96536C3.3248 2.63327 3.7155 2.37931 4.14924 2.21921C4.50087 2.08247 5.03228 1.9184 6.00507 1.87537C7.05996 1.82851 7.37649 1.81676 10.0449 1.81676C12.7173 1.81676 13.0337 1.82851 14.0848 1.87537C15.0615 1.9184 15.589 2.08247 15.9406 2.21921C16.3742 2.37931 16.7689 2.63327 17.0892 2.96536C17.4213 3.28967 17.6753 3.68038 17.8355 4.11412C17.9723 4.46575 18.1363 4.99701 18.1794 5.96995C18.2262 7.02484 18.238 7.34122 18.238 10.0097C18.238 12.6783 18.2262 12.9908 18.1794 14.0457Z"/>
        <path d="M10.0371 4.86426C7.20069 4.86426 4.89937 7.16543 4.89937 10.002C4.89937 12.8385 7.20069 15.1397 10.0371 15.1397C12.8736 15.1397 15.1748 12.8385 15.1748 10.002C15.1748 7.16543 12.8736 4.86426 10.0371 4.86426ZM10.0371 13.3347C8.19698 13.3347 6.70438 11.8422 6.70438 10.002C6.70438 8.16172 8.19698 6.66927 10.0371 6.66927C11.8774 6.66927 13.3698 8.16172 13.3698 10.002C13.3698 11.8422 11.8774 13.3347 10.0371 13.3347Z"/>
        <path d="M16.5775 4.6611C16.5775 5.32346 16.0405 5.86052 15.378 5.86052C14.7156 5.86052 14.1785 5.32346 14.1785 4.6611C14.1785 3.99858 14.7156 3.46167 15.378 3.46167C16.0405 3.46167 16.5775 3.99858 16.5775 4.6611Z"/>
    </symbol>

    <!--  Twitter Icon-->
    <symbol id="icon-twitter" viewBox="0 0 20 20">
        <path d="M20 3.79875C19.2563 4.125 18.4637 4.34125 17.6375 4.44625C18.4875 3.93875 19.1363 3.14125 19.4412 2.18C18.6488 2.6525 17.7738 2.98625 16.8412 3.1725C16.0887 2.37125 15.0162 1.875 13.8462 1.875C11.5763 1.875 9.74875 3.7175 9.74875 5.97625C9.74875 6.30125 9.77625 6.61375 9.84375 6.91125C6.435 6.745 3.41875 5.11125 1.3925 2.6225C1.03875 3.23625 0.83125 3.93875 0.83125 4.695C0.83125 6.115 1.5625 7.37375 2.6525 8.1025C1.99375 8.09 1.3475 7.89875 0.8 7.5975C0.8 7.61 0.8 7.62625 0.8 7.6425C0.8 9.635 2.22125 11.29 4.085 11.6712C3.75125 11.7625 3.3875 11.8062 3.01 11.8062C2.7475 11.8062 2.4825 11.7913 2.23375 11.7362C2.765 13.36 4.2725 14.5538 6.065 14.5925C4.67 15.6838 2.89875 16.3412 0.98125 16.3412C0.645 16.3412 0.3225 16.3263 0 16.285C1.81625 17.4563 3.96875 18.125 6.29 18.125C13.835 18.125 17.96 11.875 17.96 6.4575C17.96 6.27625 17.9538 6.10125 17.945 5.9275C18.7588 5.35 19.4425 4.62875 20 3.79875Z" />
    </symbol>

    <!--  Facebook Icon-->
    <symbol id="icon-facebook" viewBox="0 0 20 20">
        <path d="M13.3308 3.32083H15.1567V0.140833C14.8417 0.0975 13.7583 0 12.4967 0C9.86417 0 8.06084 1.65583 8.06084 4.69917V7.5H5.15584V11.055H8.06084V20H11.6225V11.0558H14.41L14.8525 7.50083H11.6217V5.05167C11.6225 4.02417 11.8992 3.32083 13.3308 3.32083Z"/>
    </symbol>

    <!--  LinkedIn Icon-->
    <symbol id="icon-linkedin" viewBox="0 0 20 20">
        <path d="M19.995 20.0001V19.9993H20V12.6643C20 9.07593 19.2275 6.31177 15.0325 6.31177C13.0158 6.31177 11.6625 7.41843 11.11 8.4676H11.0517V6.64677H7.07416V19.9993H11.2158V13.3876C11.2158 11.6468 11.5458 9.96343 13.7017 9.96343C15.8258 9.96343 15.8575 11.9501 15.8575 13.4993V20.0001H19.995Z"/>
        <path d="M0.329987 6.64746H4.47665V20H0.329987V6.64746Z"/>
        <path d="M2.40167 0C1.07583 0 0 1.07583 0 2.40167C0 3.7275 1.07583 4.82583 2.40167 4.82583C3.7275 4.82583 4.80333 3.7275 4.80333 2.40167C4.8025 1.07583 3.72667 0 2.40167 0V0Z"/>
    </symbol>

    <!-- Location Icon -->
    <symbol id="icon-location" viewBox="0 0 24 24">
      <path fill-rule="evenodd" clip-rule="evenodd" d="M20 10.3636C20 16.0909 12 21 12 21C12 21 4 16.0909 4 10.3636C4 6.29681 7.58172 3 12 3C16.4183 3 20 6.29681 20 10.3636V10.3636Z" stroke-linecap="round" stroke-linejoin="round"/>
      <path fill-rule="evenodd" clip-rule="evenodd" d="M12 14C13.6569 14 15 12.6569 15 11C15 9.34315 13.6569 8 12 8C10.3431 8 9 9.34315 9 11C9 12.6569 10.3431 14 12 14Z" stroke-linecap="round" stroke-linejoin="round"/>
    </symbol>

    <!--  Telephone Icon-->
    <symbol id="icon-telephone" viewBox="0 0 24 24">
      <path fill-rule="evenodd" clip-rule="evenodd" d="M19.9996 16.0028V18.4163C20.0014 18.8693 19.8122 19.3021 19.4783 19.6084C19.1445 19.9147 18.697 20.066 18.2458 20.0252C15.7703 19.7562 13.3924 18.9103 11.3032 17.5555C9.35943 16.3203 7.71147 14.6724 6.47633 12.7286C5.11675 10.6299 4.27066 8.24046 4.0066 5.75383C3.96595 5.30403 4.11622 4.85785 4.42071 4.52429C4.7252 4.19073 5.15586 4.0005 5.6075 4.00008H8.02093C8.82851 3.99213 9.51685 4.5841 9.62988 5.38378C9.73174 6.15613 9.92065 6.91447 10.193 7.64435C10.414 8.23232 10.2727 8.89515 9.83099 9.34179L8.80931 10.3635C9.95453 12.3775 11.6221 14.0451 13.6362 15.1903L14.6578 14.1686C15.1045 13.727 15.7673 13.5856 16.3553 13.8066C17.0852 14.079 17.8435 14.2679 18.6159 14.3698C19.4248 14.4839 20.0198 15.1861 19.9996 16.0028Z" stroke-linecap="round" stroke-linejoin="round"/>
    </symbol>

    <!-- Mail Icon -->
    <symbol id="icon-mail" viewBox="0 0 24 24">
      <path fill-rule="evenodd" clip-rule="evenodd" d="M4.8 5H19.2C20.19 5 21 5.7875 21 6.75V17.25C21 18.2125 20.19 19 19.2 19H4.8C3.81 19 3 18.2125 3 17.25V6.75C3 5.7875 3.81 5 4.8 5Z" stroke-linecap="round" stroke-linejoin="round"/>
      <path d="M20 7L12 13L4 7" stroke-linecap="round" stroke-linejoin="round"/>
    </symbol>

    <!-- Test Icon -->
    <symbol id="icon-test" viewBox="0 0 104 56">
      <path fill-rule="evenodd" clip-rule="evenodd" d="M38 7L45.0078 13.6764L32 13.6687V46.0609H66V33.6758L73 40.3448V7H38ZM65.6924 32.8922L45.8226 13.962H65.6924V32.8922ZM59.5231 41.3227H37.3801V19.5373H38.9453V39.8475H59.5231V41.3227ZM41.7959 52.0611L40.9707 50.3643H40.2896L41.4858 52.6104V53.919H42.1035V52.6104L43.2998 50.3643H42.6211L41.7959 52.0611ZM44.8379 50.3643H44.9844L46.3271 53.919H45.6826L45.395 53.0865H44.0189L43.7319 53.919H43.0898L44.4277 50.3643H44.5718H44.8379ZM44.1864 52.6007H45.2271L44.7062 51.0927L44.1864 52.6007ZM48.4821 52.0117C48.4553 51.9776 48.4295 51.9445 48.4048 51.9122C48.3136 51.7917 48.2428 51.6754 48.1924 51.5631C48.1419 51.4491 48.1167 51.3319 48.1167 51.2115C48.1167 51.026 48.1549 50.8665 48.2314 50.733C48.3079 50.5995 48.4162 50.497 48.5562 50.4254C48.6961 50.3521 48.8597 50.3155 49.0469 50.3155C49.2275 50.3155 49.383 50.3521 49.5132 50.4254C49.645 50.497 49.7459 50.5922 49.8159 50.711C49.8875 50.8298 49.9233 50.96 49.9233 51.1016C49.9233 51.2139 49.903 51.3165 49.8623 51.4093C49.8216 51.502 49.7655 51.5867 49.6938 51.6632C49.6222 51.7397 49.5392 51.8121 49.4448 51.8805L49.1979 52.0602L49.9018 52.8909C49.925 52.8453 49.946 52.7973 49.9648 52.7472C50.0251 52.5909 50.0552 52.4176 50.0552 52.2271H50.563C50.563 52.3997 50.5459 52.5632 50.5117 52.7179C50.4792 52.8725 50.4263 53.0157 50.353 53.1475C50.3233 53.2022 50.2897 53.2545 50.2522 53.3044L50.7729 53.919H50.0918L49.8852 53.676C49.7734 53.7609 49.6518 53.8272 49.5205 53.8751C49.348 53.9369 49.1641 53.9679 48.9688 53.9679C48.7327 53.9679 48.5285 53.9247 48.356 53.8385C48.1834 53.7522 48.05 53.6334 47.9556 53.482C47.8628 53.3306 47.8164 53.1573 47.8164 52.962C47.8164 52.8171 47.8465 52.6902 47.9067 52.5811C47.967 52.4705 48.0492 52.3679 48.1533 52.2735C48.2495 52.1862 48.3591 52.099 48.4821 52.0117ZM48.7738 52.3689L48.7002 52.4224C48.6139 52.4924 48.5496 52.56 48.5073 52.6251C48.4666 52.6886 48.4398 52.7472 48.4268 52.8009C48.4137 52.8546 48.4072 52.9018 48.4072 52.9425C48.4072 53.0466 48.4292 53.141 48.4731 53.2257C48.5187 53.3103 48.5846 53.3778 48.6709 53.4283C48.7588 53.4771 48.8654 53.5015 48.9907 53.5015C49.1258 53.5015 49.2568 53.4714 49.3838 53.4112C49.4474 53.3802 49.5078 53.3429 49.5648 53.2992L48.7738 52.3689ZM48.9143 51.7196L49.1323 51.5728C49.2349 51.5045 49.3081 51.4377 49.3521 51.3726C49.396 51.3059 49.418 51.2229 49.418 51.1236C49.418 51.039 49.3854 50.9609 49.3203 50.8892C49.2552 50.8176 49.1632 50.7818 49.0444 50.7818C48.9614 50.7818 48.8914 50.8013 48.8345 50.8404C48.7775 50.8778 48.7344 50.9283 48.7051 50.9918C48.6774 51.0536 48.6636 51.1228 48.6636 51.1993C48.6636 51.2725 48.6823 51.3482 48.7197 51.4263C48.7572 51.5028 48.8084 51.5834 48.8735 51.668C48.8868 51.685 48.9004 51.7021 48.9143 51.7196ZM55.1333 52.7618H54.5229C54.505 52.9164 54.4676 53.0474 54.4106 53.1549C54.3553 53.2607 54.2731 53.3412 54.1641 53.3966C54.0566 53.4519 53.9159 53.4796 53.7417 53.4796C53.5985 53.4796 53.4756 53.4511 53.373 53.3941C53.2705 53.3372 53.1859 53.2566 53.1191 53.1524C53.054 53.0483 53.0052 52.9237 52.9727 52.7789C52.9417 52.6324 52.9263 52.4696 52.9263 52.2906V51.9903C52.9263 51.8015 52.9434 51.6339 52.9775 51.4874C53.0133 51.3393 53.0662 51.2148 53.1362 51.1138C53.2062 51.0129 53.2933 50.9364 53.3975 50.8844C53.5016 50.8323 53.6237 50.8062 53.7637 50.8062C53.9346 50.8062 54.0729 50.8355 54.1787 50.8941C54.2845 50.9511 54.3643 51.0341 54.418 51.1431C54.4733 51.2522 54.5091 51.3832 54.5254 51.5362H55.1357C55.1113 51.2986 55.0446 51.0878 54.9355 50.9039C54.8281 50.72 54.6768 50.5759 54.4814 50.4718C54.2861 50.3676 54.0469 50.3155 53.7637 50.3155C53.5407 50.3155 53.3397 50.3546 53.1606 50.4327C52.9832 50.5108 52.8311 50.6239 52.7041 50.7721C52.5771 50.9185 52.4795 51.0951 52.4111 51.3018C52.3444 51.5085 52.311 51.7397 52.311 51.9952V52.2906C52.311 52.5461 52.3436 52.7773 52.4087 52.984C52.4754 53.1907 52.5715 53.3673 52.6968 53.5138C52.8221 53.6586 52.9727 53.7709 53.1484 53.8507C53.3242 53.9288 53.522 53.9679 53.7417 53.9679C54.0282 53.9679 54.2715 53.9158 54.4717 53.8116C54.6719 53.7074 54.8273 53.565 54.938 53.3844C55.0487 53.2021 55.1138 52.9945 55.1333 52.7618ZM58.5244 52.2393V52.044C58.5244 51.7755 58.4886 51.5354 58.417 51.3238C58.347 51.1106 58.2469 50.9291 58.1167 50.7794C57.9865 50.628 57.8311 50.5133 57.6504 50.4351C57.4697 50.3554 57.2695 50.3155 57.0498 50.3155C56.8317 50.3155 56.6323 50.3554 56.4517 50.4351C56.2726 50.5133 56.1172 50.628 55.9854 50.7794C55.8551 50.9291 55.7542 51.1106 55.6826 51.3238C55.611 51.5354 55.5752 51.7755 55.5752 52.044V52.2393C55.5752 52.5079 55.611 52.7488 55.6826 52.962C55.7559 53.1752 55.8584 53.3567 55.9902 53.5064C56.1221 53.6562 56.2775 53.7709 56.4565 53.8507C56.6372 53.9288 56.8366 53.9679 57.0547 53.9679C57.2744 53.9679 57.4746 53.9288 57.6553 53.8507C57.8359 53.7709 57.9906 53.6562 58.1191 53.5064C58.2493 53.3567 58.3494 53.1752 58.4194 52.962C58.4894 52.7488 58.5244 52.5079 58.5244 52.2393ZM57.9116 52.0391V52.2393C57.9116 52.4379 57.8921 52.6137 57.853 52.7667C57.8156 52.9197 57.7603 53.0491 57.687 53.1549C57.6138 53.259 57.5243 53.338 57.4185 53.3917C57.3127 53.4438 57.1914 53.4698 57.0547 53.4698C56.9196 53.4698 56.7992 53.4438 56.6934 53.3917C56.5876 53.338 56.4964 53.259 56.4199 53.1549C56.3451 53.0491 56.2881 52.9197 56.249 52.7667C56.21 52.6137 56.1904 52.4379 56.1904 52.2393V52.0391C56.1904 51.8406 56.21 51.6656 56.249 51.5142C56.2881 51.3612 56.3442 51.2335 56.4175 51.1309C56.4923 51.0268 56.5827 50.9486 56.6885 50.8966C56.7943 50.8429 56.9147 50.816 57.0498 50.816C57.1849 50.816 57.3062 50.8429 57.4136 50.8966C57.521 50.9486 57.6113 51.0268 57.6846 51.1309C57.7594 51.2335 57.8156 51.3612 57.853 51.5142C57.8921 51.6656 57.9116 51.8406 57.9116 52.0391Z"/>
    </symbol>

        <!-- Close Icon -->
    <symbol id="icon-close" viewBox="0 0 8 8">
      <path d="M8 0.805714L7.19429 0L4 3.19429L0.805714 0L0 0.805714L3.19429 4L0 7.19429L0.805714 8L4 4.80571L7.19429 8L8 7.19429L4.80571 4L8 0.805714Z" />
    </symbol>

    <!-- FORM ICONS -->
    <!-- Name Icon -->
    <symbol id="icon-name" viewBox="0 0 32 32">
      <path d="M16 16c2.947 0 5.333-2.387 5.333-5.333S18.946 5.334 16 5.334c-2.947 0-5.333 2.387-5.333 5.333S13.054 16 16 16zm0 2.667c-3.56 0-10.667 1.787-10.667 5.333v1.333c0 .733.6 1.333 1.333 1.333h18.667c.733 0 1.333-.6 1.333-1.333V24c0-3.547-7.107-5.333-10.667-5.333z"/>
    </symbol>

    <!-- Phone Icon -->
    <symbol id="icon-phone" viewBox="0 0 32 32">
         <path d="m24.882 19.773-3.268-.373a2.561 2.561 0 0 0-2.11.733L17.137 22.5a19.357 19.357 0 0 1-8.478-8.478l2.38-2.38a2.561 2.561 0 0 0 .733-2.11l-.373-3.242a2.575 2.575 0 0 0-2.56-2.277H6.613c-1.454 0-2.663 1.209-2.573 2.663.682 10.987 9.469 19.761 20.443 20.443 1.454.09 2.663-1.119 2.663-2.573V22.32a2.549 2.549 0 0 0-2.264-2.547z"/>
    </symbol>

    <!-- Email Icon -->
    <symbol id="icon-email" viewBox="0 0 32 32">
        <path d="M26.667 5.333H5.334A2.663 2.663 0 0 0 2.681 8l-.013 16c0 1.467 1.2 2.667 2.667 2.667h21.333c1.467 0 2.667-1.2 2.667-2.667V8c0-1.467-1.2-2.667-2.667-2.667zM26.133 11l-9.427 5.893a1.346 1.346 0 0 1-1.413 0L5.866 11a1.132 1.132 0 1 1 1.2-1.92l8.933 5.587 8.933-5.587a1.132 1.132 0 1 1 1.2 1.92z"/>
    </symbol>

    <!-- Custom Checkbox Icon -->
    <symbol id="icon-checkbox" viewBox="0 0 32 32">
      <path d="m4.817 15.389-.169-.162-2.544 2.41 8.962 8.55L29.895 8.225l-2.527-2.411L11.066 21.35l-6.249-5.962z"/>
    </symbol>
  </defs>
</svg>